<?xml version="1.0" encoding="UTF-8"?>
<svg id="Layer_1" data-name="Layer 1" xmlns="http://www.w3.org/2000/svg" viewBox="0 0 3000 3000">
  <defs>
    <style>
      .cls-1 {
        fill: #df7869;
        font-family: FiraCode-Bold, 'Fira Code';
        font-size: 659.73px;
        font-weight: 700;
      }

      .cls-2 {
        font-size: 483.27px;
      }

      .cls-2, .cls-3, .cls-4, .cls-5 {
        fill: #065c88;
        font-family: NotoSansSC-Black, 'Noto Sans SC';
        font-variation-settings: 'wght' 900;
        font-weight: 800;
      }

      .cls-6 {
        fill: #fff;
      }

      .cls-7 {
        fill: #de585f;
        font-family: YouSheBiaoTiYuan-GBpc-EUC-H, YouSheBiaoTiYuan;
        font-size: 741.55px;
      }

      .cls-8 {
        letter-spacing: -.04em;
      }

      .cls-3 {
        font-size: 454.1px;
      }

      .cls-4 {
        font-size: 453.8px;
      }

      .cls-9 {
        fill: #0c4e9c;
      }

      .cls-5 {
        font-size: 484.05px;
      }

      .cls-10 {
        letter-spacing: -.02em;
      }
    </style>
  </defs>
  <rect class="cls-6" y="0" width="3000" height="3000"/>
  <text class="cls-5" transform="translate(319.63 1183.1) rotate(-60)"><tspan x="0" y="0">Ni</tspan><tspan class="cls-8" x="525.19" y="0">c</tspan><tspan x="765.76" y="0">e</tspan></text>
  <text class="cls-3" transform="translate(859.9 535.03)"><tspan x="0" y="0">Lib</tspan></text>
  <text class="cls-4" transform="translate(1688.93 535.03)"><tspan x="0" y="0">Bring</tspan></text>
  <text class="cls-2" transform="translate(1868.92 1176.3)"><tspan x="0" y="0">N</tspan><tspan class="cls-10" x="369.22" y="0">o</tspan><tspan x="668.36" y="0">w</tspan></text>
  <text class="cls-7" transform="translate(135.54 2904.27)"><tspan x="0" y="0">拿来吧你</tspan></text>
  <text class="cls-1" transform="translate(1393.67 2032.92)"><tspan x="0" y="0">NLBN</tspan></text>
  <path class="cls-9" d="M1733.48,959.15c-28.15-12.97-62.38-15.37-94.16-17.16-40.43-2.27-81.18.93-124.29,1.83,49.54-57.69,68.32-91.07,72.62-142.21,2.25-26.77,1.06-55.11-5.32-81.09-22.28-90.8-101.94-129.12-187.1-90.31-118.05,53.79-234.24,111.77-353.24,163.33-90.4,39.17-169.28,90.63-239.42,161.03-111.31,111.71-236.94,206.96-363.5,301.46-129.54,96.73-250.83,204.56-375.12,308.26-21.04,17.56-42.34,34.63-64.2,50.78v107.81c28.53-17.84,55.52-38.02,81.65-59.88,128.02-107.14,252.21-219.56,386.23-318.64,167.14-123.57,326.32-255.25,474.58-400.6,9.51-9.32,21.81-16.56,33.97-22.29,98.44-46.4,197.16-92.2,295.8-138.18,52.26-24.36,104.3-49.19,156.84-72.93,39.04-17.64,61.16-7.22,69.99,34.38,10.81,50.92,1.06,100.23-42.86,129.42-45.14,30-97.23,49.56-146.5,73.24-4.15,2-9.94.67-14.97.77-51.74,1.09-103.48,2.02-155.22,3.27-46.85,1.14-87.67,17.88-119.54,52.09-47.52,51.01-93.76,103.22-139.79,155.57-6.67,7.59-11.89,18.53-13.05,28.47-2.3,19.71,6.86,34.83,25.85,42.74,20.83,8.67,37.87,2.38,52.31-13.65,43.77-48.61,87.78-97,131.16-145.96,18.29-20.64,40.1-31.63,67.86-32.15,171.01-3.18,342.01-6.89,513.01-9.92,46.58-.83,64.09,21.43,53.87,67.03-2.17,9.69-6.17,19.32-11.07,27.98-28.31,49.96-72.68,70.96-128.89,71.84-120.74,1.9-241.46,4.84-362.2,6.65-20.19.3-35.8,6.56-49.3,21.67-68.46,76.67-137.68,152.65-206.05,229.4-54.64,61.34-89.72,131.78-94.62,215.07-7.46,126.79,69.31,218.21,195.34,232.18,47.84,5.3,96.02,7.64,143.79,13.37,62.66,7.52,120.78,76.3,119.78,139.37-.42,26.27-9.42,34.75-35.87,32.56-92.38-7.64-184.76-15.31-277.1-23.36-102.74-8.96-203.61-6.82-301.25,34.16-40.69,17.07-84.6,27.38-127.88,37.09-37.09,8.32-75.31,11.76-113.12,16.74-70.4,9.26-137.86,26.61-202.2,58.57-85.84,42.63-173.54,81.5-260.56,121.77v93.75c10.38-3.75,20.8-7.43,30.8-12.01,58.99-26.98,119.21-51.72,176.29-82.3,112.8-60.45,232.05-94.99,359.39-107.22,49.53-4.76,100.79-15.57,146.04-35.49,85.32-37.56,172.44-47.55,263.51-39.72,103.07,8.87,206.12,18.24,309.31,25.43,64.46,4.49,110.64-36.47,118-100.37,13.73-119.33-83.48-235.04-208.26-247.37-39.33-3.89-78.89-5.6-118.1-10.36-21.89-2.66-45.01-5.9-64.55-15.21-53.67-25.57-75.66-84-64-150.84,14.53-83.35,70.35-139.19,124.93-197.46,61.3,32.54,122.1,63.61,181.76,96.76,87.94,48.86,190.65,31.03,248.84-44.77,49.16-64.04,39.08-137.53-26.03-184.88-15.18-11.04-31.95-19.9-52.29-32.4,11.84-.57,18.72-1.07,25.61-1.22,44.55-.95,89.12-1.19,133.63-2.85,101.22-3.78,179.39-64.14,209.33-160.72,21.3-68.71-.48-134.7-60.49-162.34ZM1425.41,1387.72c24.15,13.32,27.21,35.29,12.25,59.09-25.22,40.13-82.91,54.07-130.87,29.65-57.61-29.34-114.36-60.4-173.95-92.02,28.13-31.1,54.69-62.11,83.53-90.84,5.14-5.12,21.5-4.33,29.62-.22,60.31,30.47,120.26,61.71,179.42,94.34Z"/>
</svg>